PathFileType	4	(x/y/z)	S04_M20_T39.trc
DataRate	CameraRate	NumFrames	NumMarkers	Units	OrigDataRate	OrigDataStartFrame	OrigNumFrames
240	240	4	51	mm	240	390	519
Frame#	Time	Sternum			R.Acromium			L.Acromium			Top.Head			R.ASIS			L.ASIS			R.PSIS			L.PSIS			R.Great.Tro			L.Great.Tro			R.Iliac.Crest			L.Iliac.Crest			V.Sacral			R.Thigh.Upper.Post			R.Thigh.Lower.Ant			R.Thigh.Lower.Post			R.Thigh.Upper.Ant			R.Knee.Lat			R.Knee.Med			R.Shank.Upper.Post			R.Shank.Lower.Ant			R.Shank.Lower.Post			R.Shank.Upper.Ant			R.Ankle.Lat			R.Ankle.Med			R.Heel.Upper			R.Heel.Med			R.Heel.Lat			R.Toe.Lat			R.Toe.Med			R.Toe.Tip			L.Thigh.Upper.Post			L.Thigh.Lower.Ant			L.Thigh.Lower.Post			L.Thigh.Upper.Ant			L.Knee.Lat			L.Knee.Med			L.Shank.Upper.Post			L.Shank.Lower.Ant			L.Shank.Lower.Post			L.Shank.Upper.Ant			L.Ankle.Lat			L.Ankle.Med			L.Heel.Upper			L.Heel.Med			L.Heel.Lat			L.Toe.Lat			L.Toe.Med			L.Toe.Tip			Cervical.Spine			Back			
		X1	Y1	Z1	X2	Y2	Z2	X3	Y3	Z3	X4	Y4	Z4	X5	Y5	Z5	X6	Y6	Z6	X7	Y7	Z7	X8	Y8	Z8	X9	Y9	Z9	X10	Y10	Z10	X11	Y11	Z11	X12	Y12	Z12	X13	Y13	Z13	X14	Y14	Z14	X15	Y15	Z15	X16	Y16	Z16	X17	Y17	Z17	X18	Y18	Z18	X19	Y19	Z19	X20	Y20	Z20	X21	Y21	Z21	X22	Y22	Z22	X23	Y23	Z23	X24	Y24	Z24	X25	Y25	Z25	X26	Y26	Z26	X27	Y27	Z27	X28	Y28	Z28	X29	Y29	Z29	X30	Y30	Z30	X31	Y31	Z31	X32	Y32	Z32	X33	Y33	Z33	X34	Y34	Z34	X35	Y35	Z35	X36	Y36	Z36	X37	Y37	Z37	X38	Y38	Z38	X39	Y39	Z39	X40	Y40	Z40	X41	Y41	Z41	X42	Y42	Z42	X43	Y43	Z43	X44	Y44	Z44	X45	Y45	Z45	X46	Y46	Z46	X47	Y47	Z47	X48	Y48	Z48	X49	Y49	Z49	X50	Y50	Z50	X51	Y51	Z51	

390	1.6208	1354.5	1258.9	224.82	1226.7	1492.4	393.62	1214.1	1464.5	42.749	1249.8	1813.1	195.96	1318.2	965.69	372.98	1345.6	997.68	121.34	1117	1016.3	250.08	1132.4	1023.6	169.99	1217.8	887.98	418.97	1241.7	916.07	39.423	1233.9	1064.4	406.52	1241.7	1072	62.473	1103.3	978.23	206.07	1198.7	627.38	410.27	1270.2	539.04	386.16	1192.4	537.09	397.89	1284.8	648.45	403.43	1199.4	469.86	392.9	1190.8	467.76	256.83	980.33	391.39	386.42	955.72	290.1	348.7	923.3	351.49	372.62	1011.4	333.59	371.49	834.54	278.27	355.36	862.33	262.09	267.77	785.26	318.31	293.02	763.37	298.23	261.57	754.78	302.18	326.89	817.08	145.68	381.87	844.36	113.94	268.61	886.68	67.497	319.53	1291.5	674.38	56.381	1399	609.69	73.758	1328.6	593.71	76.26	1358.9	688.47	51.427	1394.5	517.64	90.692	1390.8	508.36	216.65	1326.5	329.04	88.5	1403.2	249.11	100.22	1339	252.32	99.164	1391.7	324.47	89.703	1391.2	97.909	116.55	1389.8	111.96	212.1	1315.6	68.887	165.5	1321.4	46.322	200.99	1318	39.778	139.24	1501.4	42.952	103.59	1531.4	58.549	219.28	1588.7	70.24	171.51	1169.9	1531.2	222.13	1096.1	1270.2	212.38
391	1.625	1359.6	1259.9	224.41	1231.8	1493.3	393.35	1219.2	1465.7	42.482	1255	1814.2	195.71	1324.1	966.87	372.23	1350.5	998.62	120.5	1122.3	1017.2	250.19	1137.5	1024.5	170.06	1224.1	888.95	418.7	1246.1	916.74	39.156	1239.6	1065.4	406.12	1246.6	1073	62.096	1108.5	979.08	206.23	1207.8	627.87	410.02	1280.2	540.28	385.65	1202.5	537.54	397.56	1293.8	649.82	402.92	1210.1	470.57	392.44	1201.2	468.56	256.26	991.05	392.55	385.97	966.24	291.22	348.49	933.93	352.73	372.28	1022	334.67	371.18	845.06	279.68	355.08	872.76	263.21	267.6	795.39	319.2	292.6	773.51	298.84	261.33	765.05	303.13	326.65	828.25	147.35	382.48	855.39	114.99	269.32	898.02	69.071	320.42	1294.9	674.93	56.177	1402	609.63	73.417	1331.6	594.04	76.034	1362.4	688.59	51.094	1397.1	517.53	90.546	1393.6	508.37	216.51	1328.1	329.26	88.56	1404.4	248.96	100.26	1340.2	252.5	99.27	1393.3	324.36	89.702	1391.5	98.011	116.71	1390.2	111.96	212.26	1315.7	69.001	165.62	1321.4	46.384	201.06	1318.1	39.981	139.28	1501.5	42.79	103.53	1531.6	57.934	219.36	1588.9	69.411	171.58	1175	1532.2	221.9	1101.2	1271.2	212.02
392	1.6292	1364.6	1261	224.01	1236.8	1494.3	393.09	1224.3	1466.8	42.223	1260.2	1815.3	195.51	1330	968.06	371.5	1355.4	999.57	119.67	1127.6	1018	250.32	1142.5	1025.3	170.15	1230.5	889.94	418.45	1250.6	917.42	38.909	1245.3	1066.5	405.74	1251.5	1074.1	61.735	1113.7	979.96	206.43	1217	628.44	409.79	1290.1	541.61	385.15	1212.5	538.08	397.23	1302.7	651.27	402.44	1220.7	471.35	391.98	1211.6	469.44	255.7	1001.8	393.62	385.52	976.87	292.23	348.29	944.63	353.84	371.94	1032.7	335.67	370.87	855.69	280.85	354.82	883.32	264.16	267.43	805.6	319.85	292.23	783.76	299.2	261.12	775.43	303.79	326.42	839.64	148.75	383.02	866.67	115.87	269.94	909.65	70.5	321.21	1298.3	675.49	55.987	1405	609.55	73.085	1334.5	594.37	75.803	1365.8	688.7	50.795	1399.6	517.42	90.397	1396.3	508.36	216.35	1329.5	329.47	88.616	1405.5	248.81	100.29	1341.3	252.67	99.371	1394.7	324.26	89.697	1391.7	98.119	116.87	1390.5	111.96	212.41	1315.8	69.107	165.74	1321.5	46.445	201.12	1318.2	40.177	139.33	1501.6	42.651	103.46	1531.7	57.353	219.43	1589.1	68.633	171.64	1180	1533.2	221.68	1106.3	1272.2	211.66
393	1.6333	1369.7	1262	223.61	1241.9	1495.2	392.84	1229.3	1468	41.97	1265.3	1816.4	195.35	1335.8	969.26	370.78	1360.3	1000.5	118.84	1132.9	1019	250.48	1147.6	1026.2	170.26	1236.8	890.96	418.22	1255	918.12	38.681	1251	1067.6	405.37	1256.4	1075.1	61.39	1118.8	980.87	206.65	1226.1	629.08	409.57	1300	543.02	384.67	1222.5	538.71	396.93	1311.5	652.77	402	1231.3	472.21	391.53	1221.9	470.39	255.15	1012.6	394.59	385.07	987.6	293.13	348.1	955.37	354.81	371.6	1043.4	336.61	370.57	866.44	281.79	354.57	894.01	264.94	267.26	815.9	320.25	291.89	794.12	299.32	260.92	785.9	304.15	326.21	851.23	149.87	383.49	878.19	116.58	270.47	921.54	71.779	321.88	1301.7	676.05	55.811	1407.9	609.48	72.763	1337.4	594.72	75.568	1369.2	688.8	50.528	1402	517.3	90.246	1398.9	508.34	216.2	1330.9	329.68	88.668	1406.5	248.67	100.32	1342.4	252.84	99.468	1396.1	324.15	89.687	1391.9	98.231	117.04	1390.8	111.97	212.56	1315.9	69.209	165.86	1321.5	46.506	201.19	1318.3	40.367	139.38	1501.7	42.533	103.4	1531.9	56.804	219.49	1589.3	67.903	171.69	1185.1	1534.2	221.47	1111.3	1273.2	211.31
